<?xml version="1.0" encoding="UTF-8" standalone="no"?>
<!-- Created with Inkscape (http://www.inkscape.org/) -->

<svg
   version="1.1"
   id="svg1"
   width="595.53906"
   height="595.53986"
   viewBox="0 0 595.53906 595.53986"
   sodipodi:docname="underwater-mine-trimmed.svg"
   inkscape:version="1.3.1 (91b66b0783, 2023-11-16, custom)"
   xmlns:inkscape="http://www.inkscape.org/namespaces/inkscape"
   xmlns:sodipodi="http://sodipodi.sourceforge.net/DTD/sodipodi-0.dtd"
   xmlns="http://www.w3.org/2000/svg"
   xmlns:svg="http://www.w3.org/2000/svg">
  <defs
     id="defs1" />
  <sodipodi:namedview
     id="namedview1"
     pagecolor="#505050"
     bordercolor="#eeeeee"
     borderopacity="1"
     inkscape:showpageshadow="0"
     inkscape:pageopacity="0"
     inkscape:pagecheckerboard="0"
     inkscape:deskcolor="#505050"
     inkscape:zoom="1.0092767"
     inkscape:cx="297.73797"
     inkscape:cy="274.45397"
     inkscape:window-width="1920"
     inkscape:window-height="1006"
     inkscape:window-x="3840"
     inkscape:window-y="0"
     inkscape:window-maximized="1"
     inkscape:current-layer="group-R5">
    <inkscape:page
       x="0"
       y="0"
       inkscape:label="1"
       id="page1"
       width="595.53906"
       height="595.53986"
       margin="0"
       bleed="0"
       inkscape:export-filename="underwater-mine-trimmed.png"
       inkscape:export-xdpi="16.11985"
       inkscape:export-ydpi="16.11985" />
  </sodipodi:namedview>
  <g
     id="g1"
     inkscape:groupmode="layer"
     inkscape:label="1"
     transform="translate(-102.51826,-76.560014)">
    <g
       id="group-R5"
       inkscape:export-filename="underwater-mine-trimmed.png"
       inkscape:export-xdpi="16.11985"
       inkscape:export-ydpi="16.11985">
      <path
         id="path57"
         d="m 2497.74,4690.94 c 2.14,-2.31 4,-4.8 5.58,-7.53 30.61,-53.02 -61.9,-163.74 -206.66,-247.32 -144.77,-83.57 -286.9,-108.33 -317.52,-55.31 -1.58,2.72 -2.81,5.59 -3.72,8.59 h -0.02 l -263.86,528.7 460.27,265.73 326.86,-492.32 -0.93,-0.54"
         style="fill:#2d2b2e;fill-opacity:1;fill-rule:evenodd;stroke:none"
         transform="matrix(0.13333333,0,0,-0.13333333,0,800.57333)" />
      <path
         id="path58"
         d="m 1992.52,4366.53 c -5.63,3.9 -10.14,8.63 -13.38,14.25 -1.58,2.72 -2.81,5.59 -3.72,8.59 h -0.02 l -263.86,528.7 287.46,165.96 40.69,10.06 c -124.42,-145.12 -158.72,-367.56 -90.57,-587.5 l 43.4,-140.06"
         style="fill:#2d2b2e;fill-opacity:1;fill-rule:evenodd;stroke:none"
         transform="matrix(0.13333333,0,0,-0.13333333,0,800.57333)" />
      <path
         id="path59"
         d="m 1893.02,5135.23 c 127.07,73.38 251.89,95.14 278.79,48.57 26.87,-46.55 -54.38,-143.78 -181.46,-217.16 -127.1,-73.37 -251.92,-95.13 -278.81,-48.57 -26.87,46.56 54.38,143.78 181.48,217.16"
         style="fill:#2d2b2e;fill-opacity:1;fill-rule:evenodd;stroke:none"
         transform="matrix(0.13333333,0,0,-0.13333333,0,800.57333)" />
      <path
         id="path60"
         d="m 1456.01,3507.04 c 3.07,0.71 6.17,1.07 9.32,1.07 61.23,0 110.85,-135.49 110.85,-302.62 0,-167.15 -49.62,-302.64 -110.85,-302.64 -3.15,0 -6.25,0.36 -9.32,1.06 v -0.02 l -589.795,35.85 v 531.48 l 589.795,36.89 v -1.07"
         style="fill:#2d2b2e;fill-opacity:1;fill-rule:evenodd;stroke:none"
         transform="matrix(0.13333333,0,0,-0.13333333,0,800.57333)" />
      <path
         id="path61"
         d="m 1484.34,2907.29 c -6.17,-2.92 -12.53,-4.44 -19.01,-4.44 -3.15,0 -6.25,0.36 -9.32,1.06 v -0.02 l -589.795,35.85 v 331.93 l 11.633,40.27 c 63.48,-180.31 238.962,-321.22 463.512,-372.2 l 142.98,-32.45"
         style="fill:#2d2b2e;fill-opacity:1;fill-rule:evenodd;stroke:none"
         transform="matrix(0.13333333,0,0,-0.13333333,0,800.57333)" />
      <path
         id="path62"
         d="m 768.887,3205.49 c 0,146.75 43.562,265.73 97.328,265.73 53.765,0 97.336,-118.98 97.336,-265.73 0,-146.76 -43.571,-265.75 -97.336,-265.75 -53.766,0 -97.328,118.99 -97.328,265.75"
         style="fill:#2d2b2e;fill-opacity:1;fill-rule:evenodd;stroke:none"
         transform="matrix(0.13333333,0,0,-0.13333333,0,800.57333)" />
      <path
         id="path63"
         d="m 4043.88,4380.72 c -0.91,-3 -2.14,-5.87 -3.72,-8.6 -30.62,-53.01 -172.79,-28.25 -317.51,55.32 -144.77,83.58 -237.28,194.3 -206.66,247.32 1.54,2.72 3.42,5.22 5.57,7.52 l -0.03,0.03 325.96,492.84 460.24,-265.73 -262.93,-529.22 -0.92,0.52"
         style="fill:#2d2b2e;fill-opacity:1;fill-rule:evenodd;stroke:none"
         transform="matrix(0.13333333,0,0,-0.13333333,0,800.57333)" />
      <path
         id="path64"
         d="m 3510.32,4656.06 c 0.57,6.81 2.42,13.08 5.67,18.7 1.54,2.72 3.42,5.22 5.57,7.52 l -0.03,0.03 325.96,492.84 287.43,-165.95 29.07,-30.23 c -187.88,35.2 -397.66,-46.33 -554.09,-215.31 l -99.58,-107.6"
         style="fill:#2d2b2e;fill-opacity:1;fill-rule:evenodd;stroke:none"
         transform="matrix(0.13333333,0,0,-0.13333333,0,800.57333)" />
      <path
         id="path65"
         d="m 4126.28,5126.59 c 127.1,-73.38 208.35,-170.62 181.45,-217.17 -26.86,-46.56 -151.69,-24.8 -278.78,48.58 -127.07,73.37 -208.32,170.6 -181.46,217.15 26.87,46.55 151.69,24.8 278.79,-48.56"
         style="fill:#2d2b2e;fill-opacity:1;fill-rule:evenodd;stroke:none"
         transform="matrix(0.13333333,0,0,-0.13333333,0,800.57333)" />
      <path
         id="path66"
         d="m 4548.31,2886.62 c -3.08,-0.7 -6.17,-1.07 -9.33,-1.07 -61.2,0 -110.85,135.49 -110.85,302.63 0,167.15 49.65,302.64 110.85,302.64 3.16,0 6.25,-0.37 9.33,-1.07 v 0.01 l 589.79,-35.85 v -531.47 l -589.79,-36.89 v 1.07"
         style="fill:#2d2b2e;fill-opacity:1;fill-rule:evenodd;stroke:none"
         transform="matrix(0.13333333,0,0,-0.13333333,0,800.57333)" />
      <path
         id="path67"
         d="m 4519.97,3486.36 c 6.2,2.93 12.54,4.46 19.01,4.46 3.16,0 6.25,-0.37 9.33,-1.07 v 0.01 l 589.79,-35.85 V 3122 l -11.64,-40.28 c -63.47,180.31 -238.96,321.23 -463.5,372.19 l -142.99,32.45"
         style="fill:#2d2b2e;fill-opacity:1;fill-rule:evenodd;stroke:none"
         transform="matrix(0.13333333,0,0,-0.13333333,0,800.57333)" />
      <path
         id="path68"
         d="m 5235.43,3188.18 c 0,-146.76 -43.56,-265.74 -97.33,-265.74 -53.76,0 -97.33,118.98 -97.33,265.74 0,146.76 43.57,265.73 97.33,265.73 53.77,0 97.33,-118.97 97.33,-265.73"
         style="fill:#2d2b2e;fill-opacity:1;fill-rule:evenodd;stroke:none"
         transform="matrix(0.13333333,0,0,-0.13333333,0,800.57333)" />
      <path
         id="path69"
         d="m 1960.44,2012.94 c 0.9,3.01 2.14,5.89 3.72,8.59 30.62,53.03 172.75,28.25 317.51,-55.32 144.76,-83.55 237.28,-194.29 206.66,-247.29 -1.57,-2.73 -3.43,-5.24 -5.57,-7.55 l -325.93,-492.86 -460.25,265.72 262.91,529.25 0.95,-0.54"
         style="fill:#2d2b2e;fill-opacity:1;fill-rule:evenodd;stroke:none"
         transform="matrix(0.13333333,0,0,-0.13333333,0,800.57333)" />
      <path
         id="path70"
         d="m 2493.99,1737.59 c -0.56,-6.81 -2.39,-13.06 -5.66,-18.67 -1.57,-2.73 -3.43,-5.24 -5.57,-7.55 l -325.93,-492.86 -287.47,165.97 -29.03,30.22 c 187.87,-35.2 397.66,46.33 554.05,215.3 l 99.61,107.59"
         style="fill:#2d2b2e;fill-opacity:1;fill-rule:evenodd;stroke:none"
         transform="matrix(0.13333333,0,0,-0.13333333,0,800.57333)" />
      <path
         id="path71"
         d="m 1878.04,1267.09 c -127.1,73.37 -208.35,170.59 -181.46,217.14 26.87,46.55 151.69,24.82 278.79,-48.55 127.07,-73.39 208.35,-170.62 181.46,-217.17 -26.87,-46.55 -151.72,-24.81 -278.79,48.58"
         style="fill:#2d2b2e;fill-opacity:1;fill-rule:evenodd;stroke:none"
         transform="matrix(0.13333333,0,0,-0.13333333,0,800.57333)" />
      <path
         id="path72"
         d="m 4028.92,2004.3 c -0.96,3.01 -2.17,5.88 -3.74,8.58 -30.62,53.01 -172.76,28.26 -317.51,-55.31 -144.77,-83.58 -237.28,-194.29 -206.67,-247.32 1.58,-2.71 3.43,-5.22 5.57,-7.52 l 325.94,-492.86 460.27,265.72 -262.96,529.24 -0.9,-0.53"
         style="fill:#2d2b2e;fill-opacity:1;fill-rule:evenodd;stroke:none"
         transform="matrix(0.13333333,0,0,-0.13333333,0,800.57333)" />
      <path
         id="path73"
         d="m 3495.34,1728.94 c 0.56,-6.81 2.42,-13.07 5.66,-18.69 1.58,-2.71 3.43,-5.22 5.57,-7.52 l 325.94,-492.86 287.43,165.96 29.06,30.22 c -187.87,-35.21 -397.66,46.33 -554.08,215.31 l -99.58,107.58"
         style="fill:#2d2b2e;fill-opacity:1;fill-rule:evenodd;stroke:none"
         transform="matrix(0.13333333,0,0,-0.13333333,0,800.57333)" />
      <path
         id="path74"
         d="m 4111.3,1258.45 c 127.1,73.36 208.35,170.59 181.48,217.14 -26.89,46.55 -151.72,24.8 -278.82,-48.56 -127.09,-73.39 -208.32,-170.61 -181.45,-217.16 26.89,-46.56 151.69,-24.82 278.79,48.58"
         style="fill:#2d2b2e;fill-opacity:1;fill-rule:evenodd;stroke:none"
         transform="matrix(0.13333333,0,0,-0.13333333,0,800.57333)" />
      <path
         id="path75"
         d="m 3002.14,1405.85 c 986.45,0 1791.01,804.54 1791.01,1790.99 0,986.43 -804.56,1790.97 -1791.01,1790.97 -986.41,0 -1790.95,-804.54 -1790.95,-1790.97 0,-986.45 804.54,-1790.99 1790.95,-1790.99"
         style="fill:#2d2b2e;fill-opacity:1;fill-rule:evenodd;stroke:none"
         transform="matrix(0.13333333,0,0,-0.13333333,0,800.57333)" />
      <path
         id="path76"
         d="m 3010.82,2016.13 c 800.54,0 1453.48,652.91 1453.48,1453.47 0,800.57 -652.94,1453.5 -1453.48,1453.5 -800.57,0 -1453.51,-652.93 -1453.51,-1453.5 0,-800.56 652.94,-1453.47 1453.51,-1453.47"
         style="fill:#3d3c40;fill-opacity:1;fill-rule:evenodd;stroke:none"
         transform="matrix(0.13333333,0,0,-0.13333333,0,800.57333)" />
      <path
         id="path77"
         d="m 3758.41,3678.69 c 155.86,0 282.93,127.08 282.93,282.92 0,155.84 -127.07,282.93 -282.93,282.93 -155.82,0 -282.92,-127.09 -282.92,-282.93 0,-155.84 127.1,-282.92 282.92,-282.92"
         style="fill:#2d2b2e;fill-opacity:1;fill-rule:evenodd;stroke:none"
         transform="matrix(0.13333333,0,0,-0.13333333,0,800.57333)" />
      <path
         id="path78"
         d="m 1788.65,4239.74 c 156.25,0 246.2,-126.68 200.92,-282.94 -45.29,-156.25 -208.7,-282.93 -364.95,-282.93 -156.25,0 -246.2,126.68 -200.91,282.93 45.28,156.26 208.69,282.94 364.94,282.94"
         style="fill:#2d2b2e;fill-opacity:1;fill-rule:evenodd;stroke:none"
         transform="matrix(0.13333333,0,0,-0.13333333,0,800.57333)" />
      <path
         id="path79"
         d="m 3098.35,4555.9 c 200.19,0 363.45,82.47 363.45,183.6 0,101.11 -163.26,183.6 -363.45,183.6 -200.21,0 -363.48,-82.49 -363.48,-183.6 0,-101.13 163.27,-183.6 363.48,-183.6"
         style="fill:#2d2b2e;fill-opacity:1;fill-rule:evenodd;stroke:none"
         transform="matrix(0.13333333,0,0,-0.13333333,0,800.57333)" />
      <path
         id="path80"
         d="m 2616.45,3742.38 c 155.85,0 282.95,127.08 282.95,282.92 0,155.85 -127.1,282.95 -282.95,282.95 -155.83,0 -282.9,-127.1 -282.9,-282.95 0,-155.84 127.07,-282.92 282.9,-282.92"
         style="fill:#2d2b2e;fill-opacity:1;fill-rule:evenodd;stroke:none"
         transform="matrix(0.13333333,0,0,-0.13333333,0,800.57333)" />
      <path
         id="path81"
         d="m 3312.36,4742.97 c 0.71,-3.07 1.07,-6.16 1.07,-9.3 0,-61.22 -135.49,-110.85 -302.61,-110.85 -167.15,0 -302.65,49.63 -302.65,110.85 0,3.14 0.37,6.23 1.08,9.3 h -0.03 l 35.85,589.8 h 531.47 l 36.89,-589.8 h -1.07"
         style="fill:#626169;fill-opacity:1;fill-rule:evenodd;stroke:none"
         transform="matrix(0.13333333,0,0,-0.13333333,0,800.57333)" />
      <path
         id="path82"
         d="m 2712.63,4714.64 c -2.9,6.2 -4.46,12.53 -4.46,19.03 0,3.14 0.37,6.23 1.08,9.3 h -0.03 l 35.85,589.8 H 3077 l 40.28,-11.63 c -180.33,-63.47 -321.24,-238.97 -372.21,-463.51 l -32.44,-142.99"
         style="fill:#7f7e87;fill-opacity:1;fill-rule:evenodd;stroke:none"
         transform="matrix(0.13333333,0,0,-0.13333333,0,800.57333)" />
      <path
         id="path83"
         d="m 3010.82,5235.43 c 146.37,0 265.72,43.73 265.72,97.34 0,53.62 -119.35,97.33 -265.72,97.33 -146.37,0 -265.75,-43.71 -265.75,-97.33 0,-53.61 119.38,-97.34 265.75,-97.34"
         style="fill:#9c9aa2;fill-opacity:1;fill-rule:evenodd;stroke:none"
         transform="matrix(0.13333333,0,0,-0.13333333,0,800.57333)" />
      <path
         id="path84"
         d="m 1818.28,4238.55 c 2.98,-0.91 5.85,-2.15 8.59,-3.73 53.03,-30.6 28.24,-172.77 -55.32,-317.51 -83.56,-144.74 -194.29,-237.27 -247.3,-206.66 -2.76,1.56 -5.24,3.44 -7.55,5.57 v -0.01 l -492.85,325.95 265.72,460.26 529.21,-262.93 -0.5,-0.94"
         style="fill:#626169;fill-opacity:1;fill-rule:evenodd;stroke:none"
         transform="matrix(0.13333333,0,0,-0.13333333,0,800.57333)" />
      <path
         id="path85"
         d="m 1542.92,3705 c -6.81,0.57 -13.07,2.41 -18.67,5.65 -2.76,1.56 -5.24,3.44 -7.55,5.57 v -0.01 l -492.85,325.95 165.94,287.45 30.24,29.06 c -35.2,-187.88 46.3,-397.68 215.28,-554.08 L 1542.92,3705"
         style="fill:#7f7e87;fill-opacity:1;fill-rule:evenodd;stroke:none"
         transform="matrix(0.13333333,0,0,-0.13333333,0,800.57333)" />
      <path
         id="path86"
         d="m 1072.4,4320.96 c 73.39,127.09 170.61,208.34 217.17,181.46 46.55,-26.88 24.81,-151.69 -48.58,-278.79 -73.37,-127.09 -170.59,-208.34 -217.14,-181.47 -46.584,26.88 -24.819,151.7 48.55,278.8"
         style="fill:#9c9aa2;fill-opacity:1;fill-rule:evenodd;stroke:none"
         transform="matrix(0.13333333,0,0,-0.13333333,0,800.57333)" />
      <path
         id="path87"
         d="m 4496.26,3701.26 c -2.3,-2.16 -4.79,-4.02 -7.52,-5.59 -53.03,-30.62 -163.74,61.91 -247.33,206.66 -83.56,144.76 -108.31,286.91 -55.32,317.53 2.74,1.56 5.61,2.79 8.63,3.73 l -0.03,0.01 528.71,263.85 265.72,-460.26 -492.32,-326.86 -0.54,0.93"
         style="fill:#626169;fill-opacity:1;fill-rule:evenodd;stroke:none"
         transform="matrix(0.13333333,0,0,-0.13333333,0,800.57333)" />
      <path
         id="path88"
         d="m 4171.88,4206.48 c 3.88,5.61 8.62,10.12 14.21,13.38 2.74,1.56 5.61,2.79 8.63,3.73 l -0.03,0.01 528.71,263.85 165.97,-287.45 10.04,-40.71 c -145.12,124.42 -367.55,158.71 -587.51,90.57 l -140.02,-43.38"
         style="fill:#7f7e87;fill-opacity:1;fill-rule:evenodd;stroke:none"
         transform="matrix(0.13333333,0,0,-0.13333333,0,800.57333)" />
      <path
         id="path89"
         d="m 4940.57,4305.98 c 73.36,-127.1 95.13,-251.91 48.55,-278.79 -46.56,-26.88 -143.78,54.36 -217.14,181.46 -73.4,127.08 -95.13,251.92 -48.58,278.8 46.55,26.87 143.77,-54.38 217.17,-181.47"
         style="fill:#9c9aa2;fill-opacity:1;fill-rule:evenodd;stroke:none"
         transform="matrix(0.13333333,0,0,-0.13333333,0,800.57333)" />
      <path
         id="path90"
         d="m 4186.04,2155.11 c -2.98,0.93 -5.85,2.14 -8.59,3.72 -53,30.61 -28.24,172.78 55.31,317.51 83.6,144.76 194.3,237.31 247.34,206.66 2.7,-1.55 5.2,-3.44 7.52,-5.57 l 0.03,0.02 492.82,-325.96 -265.72,-460.25 -529.24,262.94 0.53,0.93"
         style="fill:#626169;fill-opacity:1;fill-rule:evenodd;stroke:none"
         transform="matrix(0.13333333,0,0,-0.13333333,0,800.57333)" />
      <path
         id="path91"
         d="m 4461.4,2688.67 c 6.81,-0.57 13.06,-2.4 18.7,-5.67 2.7,-1.55 5.2,-3.44 7.52,-5.57 l 0.03,0.02 492.82,-325.96 -165.94,-287.43 -30.21,-29.07 c 35.17,187.88 -46.33,397.67 -215.35,554.09 l -107.57,99.59"
         style="fill:#7f7e87;fill-opacity:1;fill-rule:evenodd;stroke:none"
         transform="matrix(0.13333333,0,0,-0.13333333,0,800.57333)" />
      <path
         id="path92"
         d="m 4931.91,2072.71 c -73.38,-127.11 -170.6,-208.33 -217.16,-181.47 -46.56,26.88 -24.81,151.69 48.58,278.79 73.37,127.1 170.59,208.36 217.14,181.46 46.55,-26.87 24.81,-151.68 -48.56,-278.78"
         style="fill:#9c9aa2;fill-opacity:1;fill-rule:evenodd;stroke:none"
         transform="matrix(0.13333333,0,0,-0.13333333,0,800.57333)" />
      <path
         id="path93"
         d="m 1508.06,2692.41 c 2.28,2.13 4.81,4 7.52,5.57 53,30.65 163.74,-61.9 247.33,-206.66 83.55,-144.72 108.31,-286.89 55.31,-317.51 -2.73,-1.58 -5.58,-2.79 -8.62,-3.72 l 0.03,-0.03 -528.71,-263.83 -265.75,460.25 492.35,326.85 0.54,-0.92"
         style="fill:#626169;fill-opacity:1;fill-rule:evenodd;stroke:none"
         transform="matrix(0.13333333,0,0,-0.13333333,0,800.57333)" />
      <path
         id="path94"
         d="m 1832.47,2187.19 c -3.92,-5.63 -8.62,-10.15 -14.25,-13.38 -2.73,-1.58 -5.58,-2.79 -8.62,-3.72 l 0.03,-0.03 -528.71,-263.83 -165.94,287.44 -10.08,40.69 c 145.12,-124.42 367.59,-158.7 587.51,-90.57 l 140.06,43.4"
         style="fill:#7f7e87;fill-opacity:1;fill-rule:evenodd;stroke:none"
         transform="matrix(0.13333333,0,0,-0.13333333,0,800.57333)" />
      <path
         id="path95"
         d="m 1063.78,2087.69 c -73.389,127.1 -95.132,251.91 -48.61,278.79 46.58,26.89 143.8,-54.36 217.2,-181.46 73.33,-127.11 95.11,-251.92 48.55,-278.79 -46.55,-26.89 -143.77,54.36 -217.14,181.46"
         style="fill:#9c9aa2;fill-opacity:1;fill-rule:evenodd;stroke:none"
         transform="matrix(0.13333333,0,0,-0.13333333,0,800.57333)" />
      <path
         id="path96"
         d="m 3295.07,1650.68 c 0.7,3.06 1.07,6.17 1.07,9.32 0,61.22 -135.5,110.85 -302.64,110.85 -167.12,0 -302.62,-49.63 -302.62,-110.85 0,-3.15 0.37,-6.26 1.07,-9.32 h -0.03 l 35.86,-589.8 h 531.47 l 36.89,589.8 h -1.07"
         style="fill:#626169;fill-opacity:1;fill-rule:evenodd;stroke:none"
         transform="matrix(0.13333333,0,0,-0.13333333,0,800.57333)" />
      <path
         id="path97"
         d="m 2695.33,1679.01 c -2.92,-6.16 -4.45,-12.53 -4.45,-19.01 0,-3.15 0.37,-6.26 1.07,-9.32 h -0.03 l 35.86,-589.8 h 331.9 l 40.3,11.66 c -180.33,63.46 -321.23,238.94 -372.2,463.52 l -32.45,142.95"
         style="fill:#7f7e87;fill-opacity:1;fill-rule:evenodd;stroke:none"
         transform="matrix(0.13333333,0,0,-0.13333333,0,800.57333)" />
      <path
         id="path98"
         d="m 2993.5,963.551 c 146.75,0 265.75,43.569 265.75,97.329 0,53.77 -119,97.34 -265.75,97.34 -146.73,0 -265.72,-43.57 -265.72,-97.34 0,-53.76 118.99,-97.329 265.72,-97.329"
         style="fill:#9c9aa2;fill-opacity:1;fill-rule:evenodd;stroke:none"
         transform="matrix(0.13333333,0,0,-0.13333333,0,800.57333)" />
      <path
         id="path99"
         d="m 2298.4,4338.42 c 70.35,59.55 155.86,86.76 234.77,81.77 l 35.54,30.1 94.23,-73.41 c 7.98,-5.44 15.64,-11.38 22.93,-17.83 l 0.06,-0.04 h -0.03 c 8.31,-7.35 16.19,-15.36 23.51,-24.04 95.73,-113.05 66.89,-294.8 -64.38,-405.94 -131.29,-111.15 -315.31,-109.61 -411.01,3.43 -13.85,16.35 -25.06,34.15 -33.77,52.95 l -56.77,104.85 35.57,30.1 c 8.11,78.67 49,158.5 119.35,218.06"
         style="fill:#626169;fill-opacity:1;fill-rule:evenodd;stroke:none"
         transform="matrix(0.13333333,0,0,-0.13333333,0,800.57333)" />
      <path
         id="path100"
         d="m 2228.53,4420.96 c 119.63,101.28 287.32,99.89 374.54,-3.13 87.22,-103.02 60.95,-268.65 -58.69,-369.94 -119.64,-101.29 -287.32,-99.88 -374.55,3.14 -87.21,103.02 -60.94,268.64 58.7,369.93"
         style="fill:#7f7e87;fill-opacity:1;fill-rule:evenodd;stroke:none"
         transform="matrix(0.13333333,0,0,-0.13333333,0,800.57333)" />
      <path
         id="path101"
         d="m 3805.75,4338.42 c -70.32,59.55 -155.82,86.76 -234.76,81.77 l -35.52,30.1 -94.26,-73.41 c -7.94,-5.44 -15.6,-11.38 -22.9,-17.83 l -0.06,-0.04 h 0.03 c -8.33,-7.35 -16.19,-15.36 -23.51,-24.04 -95.73,-113.05 -66.89,-294.8 64.38,-405.94 131.27,-111.15 315.28,-109.61 411.02,3.43 13.85,16.35 25.05,34.15 33.77,52.95 l 56.77,104.85 -35.57,30.1 c -8.11,78.67 -49.04,158.5 -119.39,218.06"
         style="fill:#626169;fill-opacity:1;fill-rule:evenodd;stroke:none"
         transform="matrix(0.13333333,0,0,-0.13333333,0,800.57333)" />
      <path
         id="path102"
         d="m 3875.65,4420.96 c -119.63,101.28 -287.32,99.89 -374.54,-3.13 -87.22,-103.02 -60.97,-268.65 58.67,-369.94 119.63,-101.29 287.32,-99.88 374.54,3.14 87.22,103.02 60.97,268.64 -58.67,369.93"
         style="fill:#7f7e87;fill-opacity:1;fill-rule:evenodd;stroke:none"
         transform="matrix(0.13333333,0,0,-0.13333333,0,800.57333)" />
      <path
         id="path103"
         d="m 2616.45,2016.13 c 155.85,0 282.95,127.1 282.95,282.93 0,155.82 -127.1,282.92 -282.95,282.92 -155.83,0 -282.9,-127.1 -282.9,-282.92 0,-155.83 127.07,-282.93 282.9,-282.93"
         style="fill:#2d2b2e;fill-opacity:1;fill-rule:evenodd;stroke:none"
         transform="matrix(0.13333333,0,0,-0.13333333,0,800.57333)" />
      <path
         id="path104"
         d="m 3817.78,2016.13 c 155.85,0 282.95,127.1 282.95,282.93 0,155.82 -127.1,282.92 -282.95,282.92 -155.83,0 -282.93,-127.1 -282.93,-282.92 0,-155.83 127.1,-282.93 282.93,-282.93"
         style="fill:#2d2b2e;fill-opacity:1;fill-rule:evenodd;stroke:none"
         transform="matrix(0.13333333,0,0,-0.13333333,0,800.57333)" />
      <path
         id="path105"
         d="m 2298.4,2173.69 c 70.35,-59.53 155.86,-86.73 234.77,-81.75 l 35.54,-30.11 94.23,73.43 c 7.98,5.43 15.64,11.37 22.93,17.82 l 0.06,0.03 h -0.03 c 8.31,7.35 16.19,15.38 23.51,24.02 95.73,113.08 66.89,294.82 -64.38,405.95 -131.29,111.19 -315.31,109.64 -411.01,-3.41 -13.85,-16.37 -25.06,-34.16 -33.77,-52.95 l -56.77,-104.85 35.57,-30.11 c 8.11,-78.65 49,-158.49 119.35,-218.07"
         style="fill:#626169;fill-opacity:1;fill-rule:evenodd;stroke:none"
         transform="matrix(0.13333333,0,0,-0.13333333,0,800.57333)" />
      <path
         id="path106"
         d="m 2228.53,2091.18 c 119.63,-101.3 287.32,-99.9 374.54,3.12 87.22,103.03 60.95,268.65 -58.69,369.93 -119.64,101.3 -287.32,99.89 -374.55,-3.12 -87.21,-103.03 -60.94,-268.66 58.7,-369.93"
         style="fill:#7f7e87;fill-opacity:1;fill-rule:evenodd;stroke:none"
         transform="matrix(0.13333333,0,0,-0.13333333,0,800.57333)" />
      <path
         id="path107"
         d="m 3805.75,2173.69 c -70.32,-59.53 -155.82,-86.73 -234.76,-81.75 l -35.52,-30.11 -94.26,73.43 c -7.94,5.43 -15.6,11.37 -22.9,17.82 l -0.06,0.03 h 0.03 c -8.33,7.35 -16.19,15.38 -23.51,24.02 -95.73,113.08 -66.89,294.82 64.38,405.95 131.27,111.19 315.28,109.64 411.02,-3.41 13.85,-16.37 25.05,-34.16 33.77,-52.95 l 56.77,-104.85 -35.57,-30.11 c -8.11,-78.65 -49.04,-158.49 -119.39,-218.07"
         style="fill:#626169;fill-opacity:1;fill-rule:evenodd;stroke:none"
         transform="matrix(0.13333333,0,0,-0.13333333,0,800.57333)" />
      <path
         id="path108"
         d="m 3875.65,2091.18 c -119.63,-101.3 -287.32,-99.9 -374.54,3.12 -87.22,103.03 -60.97,268.65 58.67,369.93 119.63,101.3 287.32,99.89 374.54,-3.12 87.22,-103.03 60.97,-268.66 -58.67,-369.93"
         style="fill:#7f7e87;fill-opacity:1;fill-rule:evenodd;stroke:none"
         transform="matrix(0.13333333,0,0,-0.13333333,0,800.57333)" />
      <path
         id="path109"
         d="m 3149.24,2727.22 c 178.84,0 324.7,145.88 324.7,324.69 0,178.84 -145.86,324.7 -324.7,324.7 -178.83,0 -324.69,-145.86 -324.69,-324.7 0,-178.81 145.86,-324.69 324.69,-324.69"
         style="fill:#2d2b2e;fill-opacity:1;fill-rule:evenodd;stroke:none"
         transform="matrix(0.13333333,0,0,-0.13333333,0,800.57333)" />
      <path
         id="path110"
         d="m 3002.14,2872.14 c 178.84,0 324.7,145.86 324.7,324.7 0,178.82 -145.86,324.68 -324.7,324.68 -178.81,0 -324.66,-145.86 -324.66,-324.68 0,-178.84 145.85,-324.7 324.66,-324.7"
         style="fill:#7f7e87;fill-opacity:1;fill-rule:evenodd;stroke:none"
         transform="matrix(0.13333333,0,0,-0.13333333,0,800.57333)" />
    </g>
  </g>
</svg>
